<?xml version="1.0" encoding="utf-8"?>
<!-- Generator: Adobe Illustrator 21.0.0, SVG Export Plug-In . SVG Version: 6.00 Build 0)  -->
<svg version="1.1" xmlns="http://www.w3.org/2000/svg" xmlns:xlink="http://www.w3.org/1999/xlink" x="0px" y="0px"
	 viewBox="0 0 1920 1080" style="enable-background:new 0 0 1920 1080;" xml:space="preserve">
<style type="text/css">
	.st0{display:none;}
	.st1{fill:#303030;}
	.st2{font-family:'Stencil';}
	.st3{font-size:203.5555px;}
	.st4{font-size:190px;}
</style>
<g id="Layer_1" class="st0">
	
		<image style="display:inline;overflow:visible;" width="416" height="416" xlink:href="123123.jpg"  transform="matrix(1.7079 0 0 1.7079 611.5 223)">
	</image>
</g>
<g id="Layer_2">
	<g>
		<path class="st1" d="M740.2,403.3l467.1,327c2.7,1.9,3.4,5.7,1.5,8.4l-7.6,10.8c-1.9,2.7-5.7,3.4-8.4,1.5l-467.1-327
			c-2.7-1.9-3.4-5.7-1.5-8.4l7.6-10.8C733.7,402.1,737.5,401.4,740.2,403.3z"/>
		<path class="st1" d="M1163.6,843.9l12.1,8.4c5.4,3.8,12.9,2.5,16.7-2.9l106.9-152.7c3.8-5.4,2.5-12.9-2.9-16.7l-12.1-8.4
			c-5.4-3.8-12.9-2.5-16.7,2.9l-106.9,152.7C1156.8,832.6,1158.2,840.2,1163.6,843.9z"/>
		<path class="st1" d="M1226.7,843L1226.7,843c5.4,3.8,12.9,2.5,16.7-2.9l64.5-92.1c3.8-5.4,2.5-12.9-2.9-16.7l0,0
			c-5.4-3.8-12.9-2.5-16.7,2.9l-64.5,92.1C1220,831.7,1221.3,839.3,1226.7,843z"/>
		<path class="st1" d="M1281,821L1281,821c4.4,3.1,10.6,2,13.7-2.4l11.4-16.2c3.1-4.4,2-10.6-2.4-13.7h0c-4.4-3.1-10.6-2-13.7,2.4
			l-11.4,16.2C1275.5,811.7,1276.6,817.9,1281,821z"/>
		<path class="st1" d="M769.8,311.4l-12.1-8.4c-5.4-3.8-12.9-2.5-16.7,2.9L634.1,458.6c-3.8,5.4-2.5,12.9,2.9,16.7l12.1,8.4
			c5.4,3.8,12.9,2.5,16.7-2.9l106.9-152.7C776.5,322.7,775.2,315.2,769.8,311.4z"/>
		<path class="st1" d="M706.7,312.3L706.7,312.3c-5.4-3.8-12.9-2.5-16.7,2.9l-64.5,92.1c-3.8,5.4-2.5,12.9,2.9,16.7l0,0
			c5.4,3.8,12.9,2.5,16.7-2.9l64.5-92.1C713.4,323.6,712.1,316.1,706.7,312.3z"/>
		<path class="st1" d="M652.4,334.4L652.4,334.4c-4.4-3.1-10.6-2-13.7,2.4L627.3,353c-3.1,4.4-2,10.6,2.4,13.7l0,0
			c4.4,3.1,10.6,2,13.7-2.4l11.4-16.2C657.9,343.6,656.8,337.5,652.4,334.4z"/>
	</g>
	<g>
		<path class="st1" d="M724.9,731.5l467.1-327c2.7-1.9,6.5-1.2,8.4,1.5l7.6,10.8c1.9,2.7,1.2,6.5-1.5,8.4l-467.1,327
			c-2.7,1.9-6.5,1.2-8.4-1.5l-7.6-10.8C721.5,737.2,722.1,733.4,724.9,731.5z"/>
		<path class="st1" d="M1283.7,484.4l12.1-8.4c5.4-3.8,6.7-11.3,2.9-16.7l-106.9-152.7c-3.8-5.4-11.3-6.7-16.7-2.9l-12.1,8.4
			c-5.4,3.8-6.7,11.3-2.9,16.7L1267,481.4C1270.8,486.8,1278.3,488.2,1283.7,484.4z"/>
		<path class="st1" d="M1304.5,424.7L1304.5,424.7c5.4-3.8,6.7-11.3,2.9-16.7l-64.5-92.1c-3.8-5.4-11.3-6.7-16.7-2.9l0,0
			c-5.4,3.8-6.7,11.3-2.9,16.7l64.5,92.1C1291.6,427.2,1299.1,428.5,1304.5,424.7z"/>
		<path class="st1" d="M1302.3,366.2L1302.3,366.2c4.4-3.1,5.5-9.2,2.4-13.7l-11.4-16.2c-3.1-4.4-9.2-5.5-13.7-2.4v0
			c-4.4,3.1-5.5,9.2-2.4,13.7l11.4,16.2C1291.7,368.2,1297.9,369.3,1302.3,366.2z"/>
		<path class="st1" d="M648.6,672.3l-12.1,8.4c-5.4,3.8-6.7,11.3-2.9,16.7l106.9,152.7c3.8,5.4,11.3,6.7,16.7,2.9l12.1-8.4
			c5.4-3.8,6.7-11.3,2.9-16.7L665.3,675.2C661.6,669.8,654,668.5,648.6,672.3z"/>
		<path class="st1" d="M627.9,731.9L627.9,731.9c-5.4,3.8-6.7,11.3-2.9,16.7l64.5,92.1c3.8,5.4,11.3,6.7,16.7,2.9h0
			c5.4-3.8,6.7-11.3,2.9-16.7l-64.5-92.1C640.8,729.4,633.3,728.1,627.9,731.9z"/>
		<path class="st1" d="M630.1,790.5L630.1,790.5c-4.4,3.1-5.5,9.2-2.4,13.7l11.4,16.2c3.1,4.4,9.2,5.5,13.7,2.4l0,0
			c4.4-3.1,5.5-9.2,2.4-13.7l-11.4-16.2C640.6,788.5,634.5,787.4,630.1,790.5z"/>
	</g>
	<text transform="matrix(1 0 0 1 641.3725 272.2754)" class="st1 st2 st3">Heavy</text>
	<text transform="matrix(1 0 0 1 590 1004)" class="st1 st2 st4">Fitness</text>
</g>
</svg>
