<?xml version="1.0" encoding="utf-8"?>
<!-- Generator: Adobe Illustrator 21.0.0, SVG Export Plug-In . SVG Version: 6.00 Build 0)  -->
<svg version="1.1" id="Capa_1" xmlns="http://www.w3.org/2000/svg" xmlns:xlink="http://www.w3.org/1999/xlink" x="0px" y="0px"
	 viewBox="0 0 512 512" style="enable-background:new 0 0 512 512;" xml:space="preserve">
<style type="text/css">
	.st0{fill:#749500;}
	.st1{fill:#5E6700;}
	.st2{fill:#FFFFFF;}
	.st3{fill:#E9EDF5;}
	.st4{fill:#636978;}
	.st5{fill:#555A66;}
	.st6{fill:#414952;}
	.st7{fill:#333940;}
</style>
<g>
	<g>
		<g>
			<g>
				<g>
					<g>
						<g>
							<g>
								<circle class="st0" cx="256" cy="256" r="256"/>
							</g>
						</g>
					</g>
				</g>
			</g>
		</g>
	</g>
</g>
<path class="st1" d="M261.2,511.9c136.4-2.7,246.6-112.1,250.6-248.1l-69.7-70.6l-14.9,8.7l-44.2-44.2l-90.4,115L174.6,154.6
	L43.1,285.3L82,324.2l-5,3.5L261.2,511.9z"/>
<g>
	<path class="st2" d="M43.1,226.7h425.8v58.6H43.1V226.7z"/>
</g>
<g>
	<path class="st3" d="M43.1,256.3h425.8v29.1H43.1V256.3z"/>
</g>
<g>
	<g>
		<path class="st4" d="M96.9,335c-17,0-30.8-13.8-30.8-30.8v-96.4c0-17,13.8-30.8,30.8-30.8s30.8,13.8,30.8,30.8v96.4
			C127.8,321.2,114,335,96.9,335z"/>
	</g>
	<g>
		<path class="st5" d="M153.1,366.1c-17,0-30.8-13.8-30.8-30.8V176.7c0-17,13.8-30.8,30.8-30.8s30.8,13.8,30.8,30.8v158.6
			C183.9,352.3,170.1,366.1,153.1,366.1z"/>
	</g>
	<g>
		<path class="st4" d="M415.1,177c17,0,30.8,13.8,30.8,30.8v96.4c0,17-13.8,30.8-30.8,30.8s-30.8-13.8-30.8-30.8v-96.4
			C384.2,190.8,398,177,415.1,177z"/>
	</g>
	<g>
		<path class="st5" d="M358.9,145.9c17,0,30.8,13.8,30.8,30.8v158.6c0,17-13.8,30.8-30.8,30.8s-30.8-13.8-30.8-30.8V176.7
			C328.1,159.7,341.9,145.9,358.9,145.9L358.9,145.9z"/>
	</g>
</g>
<g>
	<g>
		<path class="st6" d="M66.1,256.3v48c0,17,13.8,30.8,30.8,30.8s30.8-13.8,30.8-30.8v-48H66.1z"/>
	</g>
	<g>
		<path class="st7" d="M122.3,256.3v79c0,17,13.8,30.8,30.8,30.8s30.8-13.8,30.8-30.8v-79H122.3z"/>
	</g>
	<g>
		<path class="st6" d="M384.2,256.3v48c0,17,13.8,30.8,30.8,30.8s30.8-13.8,30.8-30.8v-48H384.2z"/>
	</g>
	<g>
		<path class="st7" d="M328.1,256.3v79c0,17,13.8,30.8,30.8,30.8s30.8-13.8,30.8-30.8v-79H328.1z"/>
	</g>
</g>
</svg>
